<?xml version="1.0" encoding="utf-8"?>
<!-- Generator: Adobe Illustrator 23.0.4, SVG Export Plug-In . SVG Version: 6.00 Build 0)  -->
<svg version="1.1" id="Camada_1" xmlns="http://www.w3.org/2000/svg" xmlns:xlink="http://www.w3.org/1999/xlink" x="0px" y="0px"
	 viewBox="0 0 581.2 95.4" style="enable-background:new 0 0 581.2 95.4;" xml:space="preserve">
<style type="text/css">
	.st0{fill:#FFFFFF;}
	.st1{fill:#FBEB64;}
</style>
<path class="st0" d="M11.1,62.2c1.6,0.6,2.7,2.1,2.6,3.8c0.2,3.7,2,7.2,6.3,7.4c3.1,0.3,5.3-0.7,6.2-3.8c1-3.5-0.3-6.6-2.5-9.2
	C19,54.9,12,51.3,9.3,44c-2-5.2-1.4-13.6,2.9-17.6c3.5-3.4,8.7-4.8,14.6-2.5c3.6,1.4,6.6,5.1,7.2,10.9c0.3,2.2-1.1,5.2-3.7,4.8
	c-3.6-0.8-3.3-3.3-4.3-6c-1-2.5-4.4-3.6-6.9-2.4c-3.5,1.6-4.6,7.2-2.4,10.8c4.7,6.6,13.2,10.4,16.3,19.2c3,7.1-0.2,18.9-9.8,19.7
	c-9.8,0.8-15.1-4.2-16.3-12.4C7,66.2,7.4,61.2,11.1,62.2z"/>
<path class="st0" d="M63.8,73.7c0,3.1-0.4,6.2-3.4,6.2c-2.4,0-4.2-1.2-4.3-4.1s0-5.6-0.1-9.2c0-4.6-7.7-5.3-7.7-0.6v8
	c0,2.6,0.1,5.8-3.8,5.8c-2.5,0-4.1-2.2-4.1-4.6c0-16.9,0.3-25.3,0.1-42.3c-0.1-4.9,5.3-8.8,11.5-8.8c7.2,0,11,4.4,11.2,7.9
	c0.6,10,0.5,20,0.5,30.1L63.8,73.7z M55.8,52.8c0-8-0.1-10.8-0.1-18.8c-0.9-3.6-7.5-3.6-7.3,0.6c-0.1,3.1,0.2,11.7,0.2,17.1
	c-0.2,2.1,1.4,3.9,3.5,4.1c0,0,0.1,0,0.1,0C53.7,55.9,55.9,55.4,55.8,52.8L55.8,52.8z"/>
<path class="st0" d="M100.7,69.6c0,3.1,0.4,10.3-4,10.3c-3.8,0-6-7.6-8-12.8c-2.4-6.6-3.1-7.7-4.7-11.4c-0.4-1-1.5-1.4-2.5-1
	c-0.7,0.3-1.2,1-1.2,1.8c0,4.6,0.1,9.5,0.1,14.2c0,1.9,0.4,9.2-3.6,9.2s-4.2-3.9-4.2-8.6s-0.1-34.8-0.2-41.2
	c-0.1-3.9,1.2-6.6,4.8-6.6c3.3,0,3.7,2.3,5,5.6c2.4,5.3,4.1,12.3,6.6,19.5c0.3,1,1.4,1.6,2.4,1.2c0.8-0.3,1.4-1.1,1.3-1.9V31.1
	c0-2.9-1-7.2,3.5-7.2c3.5,0,4.2,3.8,4.2,6c0,4.3,0,11.8,0.2,19.4C100.6,53.5,100.7,65.3,100.7,69.6z"/>
<path class="st0" d="M131.3,31.5c-1,0.1-2,0.1-3,0.1c-2.2,0.1-4,2-4,4.2c0,6.6-0.2,14.2-0.1,20.8c0.3,6.6,0.2,13.2-0.2,19.8
	c-0.2,2-1.9,3.5-3.9,3.4c-1.8-0.2-3.5-0.7-3.9-1.9c-0.9-2.4-0.7-8.4-0.6-12.5c0.1-3.2,0.2-20,0.3-23.5V36c0-2.3-1.8-4.2-4.1-4.2
	c-1.4-0.1-2.8-0.1-3.4-0.1c-1.2,0-4.1,0-3.9-3.7c0.2-4.6,3.4-4.1,4.5-4.1h13.3c3.1,0,7.8-0.1,10,0.2c0.9,0.2,2.4,1.2,2.4,4
	S133.6,31.2,131.3,31.5z"/>
<path class="st0" d="M164.1,73.7c0,3.1-0.4,6.2-3.4,6.2c-2.4,0-4.2-1.2-4.3-4.1s0-5.6-0.1-9.2c0-4.6-7.7-5.3-7.7-0.6v8
	c0,2.6,0.1,5.8-3.8,5.8c-2.5,0-4.1-2.2-4.1-4.6c0-16.9,0.4-25.3,0.1-42.3c-0.1-4.9,5.3-8.8,11.5-8.8c7.2,0,11,4.4,11.2,7.9
	c0.6,10,0.5,20,0.5,30.1V73.7z M156.1,52.8c0-8-0.1-10.8-0.1-18.8c-0.9-3.6-7.5-3.6-7.3,0.6c-0.1,3.1,0.2,11.7,0.2,17.1
	c-0.2,2.1,1.4,3.9,3.5,4.1c0,0,0.1,0,0.1,0C154,55.9,156.2,55.4,156.1,52.8L156.1,52.8z"/>
<path class="st0" d="M213.2,61.5c3.7,0,4.4,3.7,4.4,6.3c0,6.5-4.2,12.2-11.2,12.2c-13,0-15.4-10.9-15.4-19.9c0-2.4-0.2-7.3-0.1-9.7
	c0.4-12.6-0.2-27.5,13.5-27.5c9.2,0,12.7,7.6,12.7,14.2c0,3.8-1.3,5.4-3.5,5.4c-3,0-4.3-2.9-4.6-4.9c-0.4-2.4-0.4-6.3-4.3-6.3
	c-5.4,0.4-5.2,7.6-5.3,16.5c-0.1,7.8-0.4,11.2,0.6,18.8c0.4,2.4,2.7,5.2,5.4,5.2c4.7,0,4-5.5,5.1-7.9
	C211,62.6,211.8,61.5,213.2,61.5z"/>
<path class="st0" d="M248.7,68.1c0,3.3-0.3,6.6-2.5,8.9c-2.8,2.6-6.5,4-10.3,3.9c-6.7,0.2-12.3-4.9-12.8-11.6
	c-0.2-2.1-0.3-30.4-0.3-34.3c0.1-2.6,0.9-5.2,2.3-7.4c2.5-3.1,6.3-4.8,10.2-4.6c3.3,0,6.5,0.9,9.2,2.7c2.6,2.2,4.2,5.5,4.1,8.9V39
	C248.6,41.2,248.7,68.1,248.7,68.1z M229.6,36c0,1.8,0,20.6,0.1,28.3c3.5-13.3,7-26.6,8.8-33.5c-0.7-0.3-1.4-0.4-2.2-0.4
	C231.8,30.4,229.6,33.5,229.6,36z M242.1,66.9c0-2.4-0.1-16.3-0.1-24.7c-2.2,8.4-5.2,19.2-8.3,30.3c0.7,0.3,1.4,0.4,2.2,0.4
	c3.3,0.2,6-2.3,6.2-5.6C242.1,67.2,242.1,67.1,242.1,66.9z"/>
<path class="st0" d="M284.2,69.1c0,3.1,0.4,10.3-4,10.3c-3.8,0-6-7.6-8-12.8c-2.5-6.6-3.1-7.7-4.7-11.4c-0.4-1-1.5-1.4-2.5-1
	c-0.7,0.3-1.2,1-1.2,1.8c0,4.6,0.1,9.5,0.1,14.2c0,1.9,0.4,9.2-3.6,9.2s-4.2-3.9-4.2-8.6s-0.1-34.8-0.2-41.2
	c-0.1-3.9,1.2-6.6,4.8-6.6c3.3,0,3.7,2.3,5,5.6c2.4,5.3,4.1,12.3,6.6,19.5c0.3,1,1.4,1.6,2.4,1.2c0.8-0.3,1.4-1.1,1.3-1.9V30.5
	c0-2.9-1-7.3,3.5-7.3c3.5,0,4.2,3.8,4.2,6c0,4.3,0,11.8,0.2,19.4C284.1,53,284.2,64.8,284.2,69.1z"/>
<path class="st0" d="M314.9,30.9c-1,0.1-2,0.2-3,0.1c-2.2,0.1-4,2-4,4.2c0,6.7-0.2,14.2-0.1,20.8c0.3,6.6,0.2,13.2-0.2,19.8
	c-0.2,2-1.9,3.5-3.9,3.4c-1.8-0.2-3.5-0.7-3.9-1.9c-0.9-2.4-0.7-8.4-0.6-12.5c0.1-3.2,0.2-20,0.3-23.5v-5.9c0-2.3-1.8-4.2-4.1-4.2
	c-1.4-0.1-2.8-0.1-3.4-0.1c-1.2,0-4.1,0-3.9-3.7c0.2-4.6,3.4-4.1,4.5-4.1h13.3c3.1,0,7.8-0.1,10.1,0.2c0.9,0.2,2.4,1.2,2.5,4
	S317.1,30.6,314.9,30.9z"/>
<path class="st0" d="M347.7,73.1c0,3.1-0.4,6.2-3.4,6.2c-2.4,0-4.2-1.2-4.3-4.1s0-5.6-0.1-9.2c0-4.6-7.7-5.3-7.7-0.6v8
	c0,2.6,0.1,5.8-3.8,5.8c-2.5,0-4.1-2.2-4.1-4.6c0-16.9,0.4-25.3,0.1-42.3c-0.1-4.9,5.3-8.8,11.5-8.8c7.3,0,11,4.4,11.2,7.9
	c0.6,10.1,0.5,20,0.5,30.1V73.1z M339.7,52.3c0-8-0.1-10.8-0.1-18.8c-0.9-3.6-7.5-3.6-7.3,0.6c-0.1,3.1,0.2,11.7,0.2,17.1
	c-0.2,2.1,1.4,3.9,3.5,4.1c0,0,0.1,0,0.1,0C337.5,55.3,339.7,54.8,339.7,52.3z"/>
<path class="st0" d="M377.3,54.7c2,3,3,6.6,3.1,10.2c0.3,11.7-5.3,14.2-12.5,14.2h-7.3c-2.4-0.1-4.2-2-4.1-4.4c0-0.1,0-0.1,0-0.2
	c0-17-0.8-35.5-0.3-46.1c-0.2-3.7,2-5.1,4.2-5.1c4.7,0,9,0,11.5,1.5c5.5,3.2,6.7,10,6.6,14.8c-0.1,7.4-1.5,8.5-3.2,10.5
	C374.3,51.1,375.4,52.1,377.3,54.7z M365.8,30.7c-1.3,0.2-2.4,1.3-2.5,2.6c-0.1,3.1-0.1,8.4,0,11.2c-0.1,1.1,0.7,2.2,1.9,2.3
	c0.1,0,0.2,0,0.3,0c1.8,0,3.2,0.2,4.2-0.5c1.8-1.3,2.5-4.6,2.5-8.1c0-1.9-0.7-4.7-1.6-5.8C368.9,30.5,368,30.7,365.8,30.7z
	 M372.3,64.9c0-9-2.9-9.5-4.7-9.5H366c-1.6,0.2-2.8,1.7-2.6,3.3v10.7c0,2.2,1.2,3.1,2.3,3.1h2.5C370.9,72.5,372.3,69.2,372.3,64.9
	L372.3,64.9z"/>
<path class="st0" d="M391.5,23.1c2.7,0,4.1,1.8,4.2,4.7c0.4,11.2,0.4,32.1,0.4,43.1c0,5.7-0.3,8.3-4.3,8.3s-4.2-4.3-4.2-7.4
	c0-6.9-0.3-31.2-0.3-42.3C387.3,24.8,388.5,23.1,391.5,23.1z"/>
<path class="st0" d="M429.8,76.5c0,3.9-10,2.8-15.7,2.8c-6.9,0-8.7-5.6-8.7-9.8c-0.3-12.8-0.5-24.2-0.5-36.9c0-3-0.9-9.1,3.7-9.5
	c4.8-0.4,5,4.3,5,9.3c0,9.4,0.3,22.4,0.3,33.1c0,3.4,1.3,6.2,4.7,6.3h8C428.5,72.3,429.8,74,429.8,76.5z"/>
<path class="st0" d="M439.1,23.1c2.7,0,4.1,1.8,4.2,4.7c0.4,11.2,0.4,32.1,0.4,43.1c0,5.7-0.3,8.3-4.3,8.3s-4.2-4.3-4.2-7.4
	c0-6.9-0.3-31.2-0.3-42.3C435,24.8,436.1,23.1,439.1,23.1z"/>
<path class="st0" d="M476.3,66.1c-2.8,11.9-7,13.3-14.2,13.3c-0.5,0-0.2-0.1-4.5-0.1c-2.7,0.2-5-1.8-5.2-4.5c0-0.2,0-0.4,0-0.7
	c0-13.5,0.3-35.6,0.3-47.2c0-1.9,1.5-3.5,3.4-3.5c2.4,0,3.2-0.1,4.9-0.1c1.6,0,3.2,0.2,4.7,0.5c8.6,1.7,10.9,12.9,11.9,23.9
	C478.1,53.9,477.7,60.1,476.3,66.1z M461.5,72.1c1.2,0.1,2.3-0.1,3.4-0.6c4-2.7,5.2-11.3,5.2-20.1c0-9.6-1.7-16.4-4.5-18.6
	c-1-1-2.3-1.5-3.7-1.5c-1.3-0.2-2.6,0.8-2.7,2.2c0,0.2,0,0.4,0,0.6c0.3,12.5,0.3,22.8,0.3,35.3C459.5,70.4,460.4,72.1,461.5,72.1
	L461.5,72.1z"/>
<path class="st0" d="M509,73.1c0,3.1-0.4,6.2-3.4,6.2c-2.5,0-4.2-1.2-4.3-4.1s0-5.6-0.1-9.2c0-4.6-7.7-5.3-7.7-0.6v8
	c0,2.6,0.1,5.8-3.8,5.8c-2.5,0-4.1-2.2-4.1-4.6c0-16.9,0.3-25.3,0.1-42.3c-0.1-4.9,5.3-8.8,11.5-8.8c7.3,0,11,4.4,11.2,7.9
	c0.6,10.1,0.5,20,0.5,30.1L509,73.1z M501,52.3c0-8-0.1-10.8-0.1-18.8c-0.9-3.6-7.5-3.6-7.3,0.6c-0.1,3.1,0.2,11.7,0.2,17.1
	c-0.2,2.1,1.4,3.9,3.5,4.1c0,0,0.1,0,0.1,0C498.8,55.3,501,54.8,501,52.3z"/>
<path class="st0" d="M541.7,66.1c-2.8,11.9-7,13.3-14.2,13.3c-0.5,0-0.2-0.1-4.5-0.1c-2.7,0.2-5-1.8-5.2-4.5c0-0.2,0-0.4,0-0.7
	c0-13.5,0.3-35.6,0.3-47.2c0-1.9,1.5-3.5,3.4-3.5c2.3,0,3.2-0.1,4.9-0.1c1.6,0,3.2,0.2,4.7,0.5c8.6,1.7,10.9,12.9,11.9,23.9
	C543.5,53.9,543,60.1,541.7,66.1z M526.8,72.1c1.2,0.1,2.3-0.1,3.4-0.6c4-2.7,5.2-11.3,5.2-20.1c0-9.6-1.7-16.4-4.5-18.6
	c-1-1-2.3-1.5-3.7-1.5c-1.3-0.2-2.6,0.8-2.7,2.1c0,0.2,0,0.4,0,0.6c0.3,12.5,0.3,22.8,0.3,35.3C524.9,70.4,525.7,72.1,526.8,72.1
	L526.8,72.1z"/>
<path class="st0" d="M574.2,75.7c0,4.3-5.7,3.6-8.3,3.6c-1.6,0-6.6-0.1-8.2-0.1c-2,0-6.7-0.2-6.7-5.4V28.7c0-4.3,1.7-5.3,5.2-5.3h10
	c3.8-0.1,8-0.5,8,4.1c0,2.6-2.5,3.8-4.5,3.8c-2.7,0-5.8-0.1-9,0c-1.7,0-3.1,1.4-3.1,3.1c0,0,0,0.1,0,0.1l0.3,9.7
	c0,1.7,1.4,3.1,3.1,3.1c0,0,0,0,0,0h2.8c3,0,4.5,1.2,4.5,3.8c0,2.2-1.8,4-4,3.9c-0.1,0-0.2,0-0.2,0c-1,0-1.9-0.1-2.9-0.1
	c-1.8,0-3.2,1.4-3.2,3.2v9.3c0,1.7,1.3,3.1,3,3.2c0.1,0,0.1,0,0.2,0c1.5,0,4.6,0.3,6,0.3c2.3,0,6.5-0.4,7.1,4.3V75.7z"/>
<path class="st1" d="M23.4,19.2h-3h-2.8c-1.8,0-3.6-0.1-5.3-0.2c-0.4,0-0.9-0.1-1.3-0.2c-0.5-0.1-0.9-0.3-1.3-0.6
	c-0.5-0.3-0.9-0.6-1.2-1c-0.4-0.5-0.7-1.1-0.8-1.7c-0.2-0.8-0.4-1.6-0.3-2.4c0-0.7,0.1-1.4,0.4-2c0.2-0.6,0.6-1.1,1-1.6
	C9,9,9.5,8.6,10,8.2c0.5-0.3,1-0.5,1.6-0.7c0.5-0.1,1.1-0.2,1.6-0.2l16.8-0.1c0.6,0,1.1,0.2,1.7,0.3c0.5,0.2,1,0.5,1.5,0.8
	c0.5,0.5,1,1.1,1.2,1.7c0.3,0.9,0.4,1.8,0.4,2.8c0,0.8-0.1,1.5-0.3,2.3c-0.1,0.6-0.3,1.1-0.6,1.7c-0.3,0.4-0.6,0.8-1,1.1
	c-0.4,0.3-0.8,0.5-1.2,0.7c-0.4,0.2-0.9,0.3-1.4,0.4c-0.5,0.1-0.9,0.1-1.4,0.2h-1.3L23.4,19.2L23.4,19.2z M13.1,15.3
	c1.2,0,2.5,0,3.7,0c4.4,0,8.7-0.1,12.7-0.2c1.2-0.1,2-1.1,1.9-2.2c0-0.5-0.2-0.9-0.5-1.3c-0.3-0.4-0.8-0.6-1.4-0.6
	c-2.1,0-4.8,0-8.2,0.1c-3.4,0-6.1,0.1-8.1,0.1c-0.5,0-1,0.3-1.3,0.7c-0.3,0.4-0.5,0.9-0.5,1.4c0,0.5,0.2,1,0.6,1.4
	C12.3,15,12.7,15.2,13.1,15.3z"/>
</svg>
